<?xml version="1.0" standalone="no"?>
<!DOCTYPE svg PUBLIC "-//W3C//DTD SVG 20010904//EN"
 "http://www.w3.org/TR/2001/REC-SVG-20010904/DTD/svg10.dtd">
<svg version="1.0" xmlns="http://www.w3.org/2000/svg"
 width="1152.000000pt" height="802.000000pt" viewBox="0 0 1152.000000 802.000000"
 preserveAspectRatio="xMidYMid meet">
<metadata>
Created by potrace 1.15, written by Peter Selinger 2001-2017
</metadata>
<g transform="translate(0.000000,802.000000) scale(0.100000,-0.100000)"
fill="#0a8028" stroke="none">
<path d="M5505 8004 c-444 -37 -907 -153 -1314 -330 -572 -249 -1104 -653
-1509 -1146 l-63 -76 -122 -6 c-67 -3 -270 -8 -452 -11 -562 -8 -685 -30 -975
-167 -341 -162 -599 -386 -779 -676 -68 -109 -183 -342 -214 -433 -64 -185
-77 -392 -77 -1234 0 -634 10 -935 35 -1079 19 -111 62 -226 145 -394 190
-383 433 -637 793 -827 219 -116 389 -174 572 -194 50 -6 340 -16 645 -22
l555 -12 160 -156 c192 -187 296 -281 432 -388 509 -404 1103 -667 1778 -787
284 -51 288 -51 625 -50 270 0 356 4 510 23 835 100 1528 406 2158 954 56 49
176 160 265 247 l163 158 394 7 c469 7 728 20 842 40 117 20 240 64 403 144
411 202 667 460 870 876 126 259 149 347 165 635 13 228 13 1381 0 1620 -16
308 -39 401 -155 639 -119 242 -203 367 -355 525 -237 247 -649 472 -953 521
-119 19 -431 34 -703 35 -110 0 -242 3 -293 7 l-92 6 -94 111 c-115 137 -300
324 -454 459 -523 460 -1153 769 -1855 913 -247 50 -401 65 -711 69 -159 1
-312 1 -340 -1z m4013 -1914 c318 -11 379 -18 507 -62 489 -166 871 -543 1045
-1033 63 -178 61 -152 67 -1065 l5 -835 -47 -135 c-167 -483 -434 -804 -840
-1008 -221 -112 -358 -149 -600 -163 -248 -15 -4800 -17 -4835 -3 -22 10 -17
12 47 27 167 38 390 139 523 237 253 188 439 438 528 710 72 218 77 282 92
1230 6 360 15 700 21 755 12 117 49 235 120 385 82 172 166 289 313 436 154
153 301 257 515 362 215 107 361 148 602 172 116 11 1548 4 1937 -10z m-8100
-850 c51 -29 85 -76 112 -155 25 -73 121 -502 229 -1030 44 -214 84 -408 89
-430 l8 -40 13 40 c7 22 77 297 157 610 154 608 202 779 236 853 30 62 88 118
157 151 48 22 69 26 151 26 75 0 104 -4 141 -21 58 -27 114 -76 144 -128 33
-57 112 -335 271 -960 75 -292 140 -535 144 -539 9 -10 15 17 131 568 114 544
193 883 217 938 23 53 74 104 127 128 46 21 130 24 187 7 86 -25 178 -145 178
-231 0 -87 -293 -1286 -462 -1892 -55 -199 -75 -241 -142 -303 -61 -56 -85
-64 -191 -63 -115 1 -181 20 -228 66 -85 83 -124 204 -362 1140 -88 344 -152
585 -157 591 -2 1 -63 -232 -137 -519 -190 -743 -267 -1023 -302 -1094 -39
-80 -113 -158 -165 -172 -21 -6 -86 -11 -145 -11 -99 0 -108 2 -150 29 -74 46
-117 116 -156 249 -155 532 -483 1874 -483 1975 0 103 73 199 178 234 56 19
161 10 210 -17z m3363 -23 c80 -41 118 -97 126 -185 8 -83 -16 -149 -72 -201
-45 -41 -120 -71 -180 -71 -97 0 -209 72 -241 155 -35 93 1 220 81 281 84 64
189 72 286 21z m-28 -622 c46 -19 91 -58 118 -101 19 -31 23 -58 31 -207 13
-224 4 -1249 -12 -1337 -15 -89 -36 -120 -103 -154 -102 -52 -249 -36 -314 35
-36 39 -53 93 -63 197 -12 126 -13 1243 0 1349 10 90 24 124 66 167 72 72 180
92 277 51z"/>
<path d="M9682 5255 c-129 -36 -201 -106 -218 -212 -14 -91 49 -190 149 -234
71 -31 206 -38 279 -14 103 33 175 105 193 193 11 53 -12 126 -55 175 -75 85
-229 125 -348 92z"/>
<path d="M7314 5240 c-136 -8 -201 -31 -262 -90 -65 -63 -65 -60 -73 -450 -11
-493 -10 -1536 0 -1646 10 -104 25 -139 82 -194 85 -82 256 -109 384 -60 72
28 157 108 176 166 8 27 13 163 16 450 l5 412 45 6 c25 3 193 6 372 6 410 1
632 12 686 34 45 19 100 68 121 108 20 39 18 127 -5 163 -29 48 -71 84 -110
95 -69 20 -239 29 -674 36 l-437 6 2 267 3 266 125 2 c69 2 355 4 635 5 l510
3 48 23 c150 74 159 263 17 346 -82 48 -100 49 -845 52 -385 1 -755 -2 -821
-6z"/>
<path d="M9635 4602 c-122 -42 -151 -90 -165 -274 -12 -159 -13 -1178 0 -1285
5 -45 18 -100 29 -122 49 -95 144 -145 271 -144 78 0 128 15 192 55 65 41 97
87 108 156 6 31 13 318 16 637 6 604 0 774 -32 854 -20 52 -87 105 -157 126
-69 20 -199 19 -262 -3z"/>
</g>
</svg>
